<?xml version="1.0" encoding="UTF-8" standalone="no"?>
<!-- Created with Inkscape (http://www.inkscape.org/) -->

<svg
   xmlns:dc="http://purl.org/dc/elements/1.1/"
   xmlns:cc="http://creativecommons.org/ns#"
   xmlns:rdf="http://www.w3.org/1999/02/22-rdf-syntax-ns#"
   xmlns:svg="http://www.w3.org/2000/svg"
   xmlns="http://www.w3.org/2000/svg"
   xmlns:sodipodi="http://sodipodi.sourceforge.net/DTD/sodipodi-0.dtd"
   xmlns:inkscape="http://www.inkscape.org/namespaces/inkscape"
   version="1.1"
   id="svg2"
   xml:space="preserve"
   width="300"
   height="300"
   viewBox="0 0 300 300"
   sodipodi:docname="NK Junak Sinj Logo.svg"
   inkscape:version="0.92.5 (2060ec1f9f, 2020-04-08)"><metadata
     id="metadata8"><rdf:RDF><cc:Work
         rdf:about=""><dc:format>image/svg+xml</dc:format><dc:type
           rdf:resource="http://purl.org/dc/dcmitype/StillImage" /><dc:title></dc:title></cc:Work></rdf:RDF></metadata><defs
     id="defs6" /><sodipodi:namedview
     pagecolor="#ffffff"
     bordercolor="#666666"
     borderopacity="1"
     objecttolerance="10"
     gridtolerance="10"
     guidetolerance="10"
     inkscape:pageopacity="0"
     inkscape:pageshadow="2"
     inkscape:window-width="1920"
     inkscape:window-height="1017"
     id="namedview4"
     showgrid="false"
     inkscape:pagecheckerboard="true"
     inkscape:zoom="0.41999294"
     inkscape:cx="600.71792"
     inkscape:cy="85.481051"
     inkscape:window-x="-8"
     inkscape:window-y="-8"
     inkscape:window-maximized="1"
     inkscape:current-layer="svg2" /><g
     id="g1101"><path
       inkscape:connector-curvature="0"
       id="path1002"
       d="m 234.6419,4.8477941 c 8.73706,15.8777269 21.14685,28.6309339 35.11581,39.9787659 l 4.89054,3.972017 -4.6554,4.245094 c -7.43581,6.779324 -13.62622,14.986784 -17.78925,24.165176 -2.95005,6.504179 -5.18156,14.249613 -5.11604,21.446138 0.0366,3.936845 0.76199,7.579245 2.0653,11.284385 2.4039,6.83588 6.32627,13.47797 9.21633,20.19454 3.90857,9.08324 6.61382,23.95278 6.61382,33.86352 0,11.96019 -3.73204,23.99485 -10.61618,33.78766 -10.64239,15.13918 -27.64759,24.21621 -44.45764,30.91072 -13.32488,5.30567 -27.01109,9.27217 -40.44286,14.17927 -3.76928,1.37641 -7.7737,3.00039 -11.16992,5.16155 -1.49778,0.9537 -2.97005,2.05773 -4.1389,3.40518 l -3.87133,4.463 -4.11615,-4.23888 c -4.1782,-4.30095 -10.09554,-6.76692 -15.63637,-8.79085 -13.43176,-4.9071 -27.11867,-8.8736 -40.442857,-14.17927 C 73.280754,222.0013 56.275554,212.92427 45.632481,197.78509 38.748338,187.99228 35.01699,175.95762 35.01699,163.99743 c 0,-9.91074 2.705244,-24.78028 6.61313,-33.86352 2.89075,-6.71657 6.812424,-13.35866 9.216322,-20.19454 1.304006,-3.70514 2.029453,-7.34754 2.06531,-11.283697 C 52.977952,91.45846 50.745761,83.713026 47.795715,77.208847 43.633372,68.030455 37.442951,59.822995 30.007143,53.043671 L 25.351747,48.798577 30.241601,44.82656 C 44.477426,33.262201 55.705269,21.315117 64.123738,4.7498694 L 66.537292,-1.6684236e-6 71.329227,2.3287333 C 93.107742,12.913886 121.56559,17.376887 145.65078,17.384475 c 26.44081,0.0089 57.92043,-3.161757 81.86907,-14.7999034 l 4.63609,-2.2535718 z"
       style="fill:#2e318e;fill-opacity:1;fill-rule:evenodd;stroke:none;stroke-width:0.13333333" /><path
       inkscape:connector-curvature="0"
       id="path18"
       style="fill:#ffffff;fill-opacity:1;fill-rule:evenodd;stroke:none;stroke-width:0.13333333"
       d="M 33.66126,49.035797 C 47.751578,37.59004 59.779344,25.270585 68.958429,7.2061795 91.430671,18.128535 120.81601,22.799793 145.64871,22.808068 c 28.07996,0.0089 60.00504,-3.567229 84.24125,-15.3453623 9.30735,16.9121063 22.35846,30.1273343 36.44877,41.5730913 -17.84373,16.268722 -24.79545,36.329479 -24.67409,49.668838 0.11724,12.798725 6.35386,21.094445 11.72297,33.572515 3.45069,8.02058 6.1718,22.43914 6.1718,31.72028 0,11.56643 -3.80858,22.3888 -9.62869,30.66866 -9.74317,13.85862 -25.58917,22.44397 -42.02891,28.99091 -14.03102,5.58771 -29.02814,10.00727 -40.29667,14.12341 -5.3836,1.96739 -9.23425,3.78032 -12.22085,5.68082 -1.96394,1.25022 -3.80721,2.67835 -5.3243,4.42714 -4.82641,-4.97054 -11.25681,-7.76681 -17.66513,-10.10796 -11.26853,-4.11614 -26.26565,-8.5357 -40.29736,-14.12341 -16.439741,-6.54694 -32.285056,-15.13229 -42.028224,-28.99091 -5.820795,-8.27986 -9.62938,-19.10223 -9.62938,-30.66866 0,-9.28114 2.721106,-23.6997 6.172489,-31.72028 C 51.981503,119.79908 58.218119,111.50336 58.334662,98.704635 58.456719,85.365276 51.504995,65.304519 33.66126,49.035797 Z M 237.19612,96.185575 99.517451,221.66202 c 11.400929,4.21889 23.013569,7.70337 34.427599,11.87399 5.70977,2.08531 11.28715,4.49404 16.03633,8.22194 0.95025,-0.75579 1.94808,-1.45503 2.97625,-2.10945 4.03133,-2.56526 8.62121,-4.47748 13.09663,-6.11249 13.33936,-4.87331 26.94903,-8.81085 40.17599,-14.07721 14.83783,-5.90976 30.59281,-14.0062 40.00291,-27.39176 5.70701,-8.1185 8.80671,-18.15681 8.80671,-28.06961 0,-8.5488 -2.43287,-22.09848 -5.80426,-29.93426 -5.25533,-12.21395 -11.96294,-21.4151 -12.09051,-35.317159 -0.008,-0.85026 0.0103,-1.70397 0.051,-2.560436 z M 94.784818,219.86013 237.9857,89.351087 c 1.01576,-5.63668 2.87489,-11.203024 5.16294,-16.249415 4.00787,-8.834983 9.65076,-16.878318 16.42387,-23.81073 -12.3036,-10.456885 -23.21561,-22.092967 -31.5403,-35.991579 -8.94187,3.932711 -18.67055,6.852418 -28.7061,8.979796 L 44.971166,162.9534 c -0.0069,0.35513 -0.01174,0.70407 -0.01174,1.04403 0,9.9128 3.099689,19.95111 8.807395,28.06961 9.409405,13.38556 25.165075,21.482 40.002903,27.39176 z M 45.436637,156.41474 190.86144,23.879685 c -15.22193,2.546643 -30.83003,3.452759 -45.21411,3.447934 -24.19414,-0.0083 -52.160312,-4.274744 -74.704274,-14.222719 -7.98541,14.404082 -18.110605,25.615376 -30.517642,36.183973 6.774499,6.933105 12.418069,14.977129 16.425255,23.812799 3.561715,7.853698 6.082845,16.967963 6.003539,25.644339 -0.12757,13.902059 -6.83518,23.103209 -12.090516,35.317859 -2.485268,5.77597 -4.460245,14.65716 -5.327055,22.35087 z M 251.81674,49.718487 C 241.9722,40.885573 233.11033,31.167236 225.8745,20.07593 c -7.63235,3.021764 -15.70671,5.386356 -23.99209,7.211695 L 50.405108,165.33937 c 0.264802,8.36123 2.990733,16.77005 7.798529,23.60867 8.321243,11.83675 22.436387,19.28222 35.652996,24.69685 L 232.98206,86.662388 c 1.1392,-5.475317 2.97971,-10.843747 5.22776,-15.800494 3.47827,-7.668197 8.10816,-14.777835 13.60692,-21.143407" /><path
       inkscape:connector-curvature="0"
       id="path20"
       style="fill:#2e318e;fill-opacity:1;fill-rule:evenodd;stroke:none;stroke-width:0.13333333"
       d="M 258.43883,239.33405 C 236.20312,275.71318 196.11884,300 150.371,300 104.1563,300 63.725156,275.21254 41.631501,238.21485 l 25.478145,8.13574 2.956257,-23.99346 c 16.514216,27.04488 46.304347,45.10308 80.305097,45.10308 33.96143,0 63.72192,-18.01751 80.24785,-45.01137 l 3.3114,24.67064 24.50858,-7.78543" /><path
       inkscape:connector-curvature="0"
       id="path22"
       style="fill:#ffffff;fill-opacity:1;fill-rule:nonzero;stroke:none;stroke-width:0.13333333"
       d="m 157.9399,200.80962 v -18.85467 h -5.29603 l 2.90109,-5.60151 h 8.53225 v 24.45618 h -6.13731" /><path
       inkscape:connector-curvature="0"
       id="path24"
       style="fill:#ffffff;fill-opacity:1;fill-rule:nonzero;stroke:none;stroke-width:0.13333333"
       d="m 179.4543,188.31086 c 1.15782,0 2.06738,-0.33927 2.72939,-1.01299 0.66131,-0.67373 0.99576,-1.59433 0.99576,-2.76318 0,-1.16885 -0.33445,-2.09565 -1.00197,-2.77489 -0.67304,-0.67925 -1.57709,-1.01921 -2.72318,-1.01921 -1.15092,0 -2.05497,0.33996 -2.72869,1.01921 -0.66752,0.67924 -1.00128,1.60604 -1.00128,2.77489 0,1.16885 0.33376,2.08945 1.00128,2.76318 0.67372,0.67372 1.57777,1.01299 2.72869,1.01299 z m 0.29997,3.94996 c -0.38065,0.10895 -0.78889,0.20136 -1.22057,0.2648 -0.43168,0.069 -0.8868,0.10344 -1.35917,0.10344 -2.08945,0 -3.82238,-0.73097 -5.19879,-2.19979 -1.37021,-1.46743 -2.05497,-3.32725 -2.05497,-5.57875 0,-2.72869 0.85164,-4.91606 2.56181,-6.55728 1.71018,-1.64052 4.00098,-2.46389 6.86828,-2.46389 2.8673,0 5.14707,0.81234 6.8338,2.43011 1.68673,1.61707 2.52734,3.79341 2.52734,6.52762 0,1.4633 -0.32825,3.00591 -0.97784,4.62919 -0.65166,1.62329 -1.79706,3.68515 -3.4431,6.18353 l -3.42035,5.20982 h -6.86828 l 5.75184,-8.5488" /><path
       inkscape:connector-curvature="0"
       id="path26"
       style="fill:#ffffff;fill-opacity:1;fill-rule:nonzero;stroke:none;stroke-width:0.13333333"
       d="m 198.00969,200.80962 v -18.85467 h -5.29602 l 2.90178,-5.60151 h 8.53156 v 24.45618 h -6.13732" /><path
       inkscape:connector-curvature="0"
       id="path28"
       style="fill:#ffffff;fill-opacity:1;fill-rule:nonzero;stroke:none;stroke-width:0.13333333"
       d="m 220.73984,189.00183 c -1.15161,0 -2.05566,0.33997 -2.72939,1.01921 -0.66751,0.67924 -1.00128,1.60605 -1.00128,2.77489 0,1.15713 0.33377,2.0729 1.00128,2.74594 0.67373,0.67372 1.57778,1.01369 2.72939,1.01369 1.1454,0 2.04945,-0.33997 2.72249,-1.01369 0.6682,-0.67304 1.00196,-1.58881 1.00196,-2.74594 0,-1.16884 -0.33376,-2.09565 -1.00196,-2.77489 -0.67304,-0.67924 -1.57709,-1.01921 -2.72249,-1.01921 z m -0.3048,-3.94926 c 0.39099,-0.12068 0.79923,-0.21308 1.2316,-0.27652 0.42617,-0.0628 0.87509,-0.0924 1.34745,-0.0924 2.08945,0 3.82238,0.73165 5.19879,2.19909 1.37021,1.46882 2.05497,3.33415 2.05497,5.59048 0,2.72387 -0.85784,4.90572 -2.57354,6.54073 -1.71569,1.635 -4.01339,2.45216 -6.89103,2.45216 -2.8673,0 -5.14156,-0.81164 -6.82828,-2.42941 -1.68674,-1.61777 -2.53355,-3.7941 -2.53355,-6.52831 0,-1.40538 0.28274,-2.85006 0.85233,-4.33543 0.5696,-1.47986 1.75638,-3.63826 3.5693,-6.47108 l 3.45483,-5.34843 h 6.88552 l -5.76839,8.69913" /><path
       inkscape:connector-curvature="0"
       id="path30"
       style="fill:#ffffff;fill-opacity:1;fill-rule:nonzero;stroke:none;stroke-width:0.13333333"
       d="M 69.249436,69.535819 V 44.84311 h 6.493835 l 11.1844,15.332267 -0.0041,-15.332267 h 6.460047 v 24.692709 h -6.460047 l -11.177506,-15.720501 -0.0026,3.526547 V 69.535819 H 69.24963" /><path
       inkscape:connector-curvature="0"
       id="path32"
       style="fill:#ffffff;fill-opacity:1;fill-rule:nonzero;stroke:none;stroke-width:0.13333333"
       d="M 98.680291,69.535819 V 44.84311 h 6.660719 v 11.214743 l 7.81301,-11.214743 h 7.8406 l -9.12461,12.044316 9.9197,12.648393 h -8.39985 l -8.04885,-11.083031 v 11.083031 h -6.660719" /><path
       inkscape:connector-curvature="0"
       id="path34"
       style="fill:#2e318e;fill-opacity:1;fill-rule:nonzero;stroke:none;stroke-width:0.13333333"
       d="m 82.52742,184.64295 6.74898,-6.08766 2.385972,2.64456 c 1.899809,2.10738 3.064521,3.01005 4.092694,3.37622 1.028861,0.36548 2.082553,0.0621 3.161064,-0.91026 0.955079,-0.86198 1.31091,-1.81568 1.066792,-2.86109 -0.244114,-1.04541 -1.028174,-2.30184 -2.957638,-4.44163 l -19.718031,-21.86195 6.749668,-6.08767 18.752609,20.79172 c 4.0003,4.43473 6.23593,8.15366 6.70899,11.1575 0.5434,3.39001 -0.95783,6.68416 -4.50162,9.88109 -3.85341,3.47482 -7.638546,4.66781 -11.358868,3.58033 -1.24815,-0.39237 -2.557674,-1.06886 -3.924436,-2.02739 -1.366757,-0.95921 -2.75145,-2.21426 -4.149931,-3.76514 l -3.056245,-3.38863" /><path
       inkscape:connector-curvature="0"
       id="path36"
       style="fill:#2e318e;fill-opacity:1;fill-rule:nonzero;stroke:none;stroke-width:0.13333333"
       d="m 90.217685,142.85678 6.749674,-6.08698 17.721681,19.64908 c 3.00659,3.33277 6.14007,6.87379 10.59963,2.85212 4.38577,-3.95615 1.24195,-7.61579 -1.70121,-10.87822 l -17.72168,-19.64907 6.74967,-6.08767 18.24922,20.23384 c 6.96896,7.72682 9.32321,15.63155 0.73509,23.37836 -8.53707,7.69923 -16.21424,4.49335 -23.13286,-3.17761 L 90.217685,142.85678" /><path
       inkscape:connector-curvature="0"
       id="path38"
       style="fill:#2e318e;fill-opacity:1;fill-rule:nonzero;stroke:none;stroke-width:0.13333333"
       d="m 137.21782,124.25381 -0.36962,0.33376 17.53619,19.44289 -6.74967,6.08767 -29.36673,-32.5602 6.79587,-6.12905 26.69389,10.94374 0.42479,-0.39721 -17.40999,-19.30289 6.74898,-6.088363 29.36742,32.560203 -6.84208,6.17111 -26.82905,-11.06166" /><path
       inkscape:connector-curvature="0"
       id="path40"
       style="fill:#2e318e;fill-opacity:1;fill-rule:nonzero;stroke:none;stroke-width:0.13333333"
       d="m 155.39119,84.075058 7.80266,-7.037225 39.07611,23.803827 -7.07378,6.37936 -5.54635,-3.52378 -10.51756,9.48871 2.99073,5.82631 -7.07309,6.37937 z m 20.01455,22.395702 7.91369,-7.137222 -17.20518,-11.50575 z" /><path
       inkscape:connector-curvature="0"
       id="path42"
       style="fill:#2e318e;fill-opacity:1;fill-rule:nonzero;stroke:none;stroke-width:0.13333333"
       d="m 195.16928,70.057146 -2.53974,-19.567699 8.13643,-7.33927 3.00797,26.147047 27.48071,5.40153 -8.51846,7.683372 -20.28556,-4.250613 11.21405,12.432555 -6.74967,6.08767 -29.36741,-32.5602 6.74966,-6.08767 10.87202,12.053278" /><path
       inkscape:connector-curvature="0"
       id="path44"
       style="fill:#ffffff;fill-opacity:1;fill-rule:nonzero;stroke:none;stroke-width:0.13333333"
       d="m 83.166666,264.93357 4.305088,2.33769 c -0.552358,1.35987 -0.635109,2.56733 -0.253769,3.62654 0.379964,1.05162 1.201261,2.00118 2.474929,2.84179 1.346069,0.88887 2.529399,1.31159 3.542403,1.25711 1.01438,-0.0469 1.741895,-0.4041 2.182541,-1.07162 0.285489,-0.43237 0.380652,-0.89094 0.288939,-1.38262 -0.08413,-0.49236 -0.412377,-1.0861 -0.986799,-1.77982 -0.38617,-0.47444 -1.332973,-1.47502 -2.823856,-3.00591 -1.923258,-1.96739 -3.099694,-3.60584 -3.532753,-4.91192 -0.615802,-1.83913 -0.44892,-3.47759 0.499952,-4.91468 0.610972,-0.92612 1.479851,-1.59088 2.611462,-2.00463 1.128855,-0.40824 2.397692,-0.45099 3.800999,-0.13171 1.404687,0.32617 2.9004,1.00955 4.492657,2.06048 2.606641,1.72052 4.231301,3.50931 4.889861,5.37671 0.65096,1.86877 0.46133,3.65618 -0.57305,5.37118 l -4.289917,-2.60111 c 0.438577,-1.05231 0.495817,-1.97912 0.175844,-2.77352 -0.318589,-0.79923 -1.06748,-1.58467 -2.245291,-2.36253 -1.215743,-0.80198 -2.314254,-1.21711 -3.28864,-1.22884 -0.628215,-0.0145 -1.099199,0.21515 -1.408825,0.68476 -0.284801,0.431 -0.320657,0.93646 -0.105506,1.51503 0.268938,0.73509 1.284699,1.98876 3.044525,3.75134 1.757065,1.76672 2.975564,3.19624 3.654117,4.28785 0.675793,1.09575 1.033693,2.2122 1.072303,3.36104 0.0338,1.14541 -0.32686,2.29081 -1.083335,3.43697 -0.686828,1.04032 -1.659838,1.80044 -2.918331,2.26916 -1.261255,0.4725 -2.639049,0.53443 -4.13545,0.17777 -1.49985,-0.35203 -3.15072,-1.12568 -4.949853,-2.3139 -2.621117,-1.72949 -4.283707,-3.58585 -4.987778,-5.57462 -0.703378,-1.98739 -0.521327,-4.08925 0.547533,-6.29799" /><path
       inkscape:connector-curvature="0"
       id="path46"
       style="fill:#ffffff;fill-opacity:1;fill-rule:nonzero;stroke:none;stroke-width:0.13333333"
       d="m 124.65011,291.07848 4.48852,-21.29299 4.90434,1.0337 -4.48852,21.29339 -4.90434,-1.0341" /><path
       inkscape:connector-curvature="0"
       id="path48"
       style="fill:#ffffff;fill-opacity:1;fill-rule:nonzero;stroke:none;stroke-width:0.13333333"
       d="m 164.13169,293.56451 -4.26233,-21.34064 4.78573,-0.95576 12.81389,12.25967 -2.84592,-14.24982 4.5692,-0.91301 4.26233,21.34028 -4.93881,0.98618 -12.59392,-11.95708 2.77972,13.91702 -4.56989,0.91316" /><path
       inkscape:connector-curvature="0"
       id="path50"
       style="fill:#ffffff;fill-opacity:1;fill-rule:nonzero;stroke:none;stroke-width:0.13333333"
       d="m 207.51012,255.9324 3.86375,-3.17624 8.74672,10.64377 c 1.14126,1.3902 1.87981,2.57974 2.21771,3.5555 0.42892,1.28677 0.39651,2.63216 -0.10482,4.03408 -0.49788,1.40607 -1.55709,2.768 -3.16934,4.0927 -1.8936,1.55674 -3.72997,2.29184 -5.51876,2.20054 -1.78051,-0.0905 -3.41828,-1.02686 -4.89951,-2.82048 l -1.35848,-1.76879 3.60377,-2.88109 1.10196,1.28332 c 0.83578,0.92611 1.5564,1.47503 2.16186,1.64673 0.91577,0.25791 1.80189,0.0345 2.6549,-0.66683 0.86199,-0.7082 1.29712,-1.42744 1.2978,-2.15565 0.004,-0.72406 -0.55511,-1.76672 -1.675,-3.12934 l -8.92256,-10.85822" /></g></svg>